<svg xmlns="http://www.w3.org/2000/svg" width="284" height="284" viewBox="0 0 284 284">
  <g id="about" transform="translate(2 2)">
    <g id="Layer_4" data-name="Layer 4" opacity="0.518">
      <path id="Path_56" data-name="Path 56" d="M140,280A140,140,0,1,1,280,140,140,140,0,0,1,140,280ZM140,8.75A131.25,131.25,0,1,0,271.25,140,131.25,131.25,0,0,0,140,8.75Z" stroke="#000" stroke-width="4"/>
    </g>
    <path id="Path_58" data-name="Path 58" d="M36.45-151.389c10.449,0,17.982-7.047,17.982-15.795,0-9.234-7.533-15.795-17.982-15.795s-18.225,6.561-18.225,15.795C18.225-158.436,26-151.389,36.45-151.389Zm14.337,18.225H22.6V0H50.787Z" transform="translate(104 233)" opacity="0.501"/>
  </g>
</svg>
