<svg xmlns="http://www.w3.org/2000/svg" width="320" height="280" viewBox="0 0 320 280">
  <g id="gallery" opacity="0.521">
    <path id="Path_1" data-name="Path 1" d="M281,237.333h40V4H47.667V44H1V284H281Zm-220-220H307.667V224H281V44H61Zm-13.333,40h220v50.573L241,81.24,127.667,194.573,61,127.907,14.333,174.573V57.333Zm220,213.333H14.333v-77.24L61,146.76l66.667,66.667L241,100.093l26.667,26.667V270.667Z" transform="translate(-1 -4)"/>
    <path id="Path_2" data-name="Path 2" d="M27.565,39.088A12.327,12.327,0,0,0,40.131,27.044,12.327,12.327,0,0,0,27.565,15,12.327,12.327,0,0,0,15,27.044,12.327,12.327,0,0,0,27.565,39.088Zm0-19.271A7.4,7.4,0,0,1,35.1,27.044a7.4,7.4,0,0,1-7.539,7.226,7.4,7.4,0,0,1-7.539-7.226A7.4,7.4,0,0,1,27.565,19.818Z" transform="translate(84.08 77.813)" stroke="#000" stroke-width="3"/>
  </g>
</svg>
