<svg xmlns="http://www.w3.org/2000/svg" width="300" height="300" viewBox="0 0 300 300">
  <g id="portfolio" opacity="0.603">
    <path id="Path_30" data-name="Path 30" d="M282.31,44.379H204.724V29.172A26.224,26.224,0,0,0,178.552,3h-51.1a26.224,26.224,0,0,0-26.172,26.172V44.379H23.69A20.69,20.69,0,0,0,3,65.069v77.586a25.862,25.862,0,0,0,10.345,20.69V271.966A31.034,31.034,0,0,0,44.379,303H261.621a31.034,31.034,0,0,0,31.034-31.034V163.345A25.862,25.862,0,0,0,303,142.655V65.069A20.69,20.69,0,0,0,282.31,44.379ZM111.621,29.172a15.828,15.828,0,0,1,15.828-15.828h51.1a15.828,15.828,0,0,1,15.828,15.828V44.379H111.621ZM282.31,168.517V271.966a20.69,20.69,0,0,1-20.69,20.69H44.379a20.69,20.69,0,0,1-20.69-20.69V168.517h20.69v25.862a15.517,15.517,0,0,0,31.034,0V168.517h62.069v10.345a15.517,15.517,0,0,0,31.035,0V168.517h62.069v25.862a15.517,15.517,0,0,0,31.035,0V168.517ZM54.724,194.379V142.655a5.172,5.172,0,1,1,10.345,0v51.724a5.172,5.172,0,1,1-10.345,0Zm93.1-15.517v-20.69a5.172,5.172,0,0,1,10.345,0v20.69a5.172,5.172,0,0,1-10.345,0Zm93.1,15.517V142.655a5.172,5.172,0,1,1,10.345,0v51.724a5.172,5.172,0,1,1-10.345,0Zm51.724-51.724a15.517,15.517,0,0,1-15.517,15.517H261.621V142.655a15.517,15.517,0,0,0-31.034,0v15.517H168.517a15.517,15.517,0,0,0-31.035,0H75.414V142.655a15.517,15.517,0,0,0-31.034,0v15.517H28.862a15.517,15.517,0,0,1-15.517-15.517V65.069A10.345,10.345,0,0,1,23.69,54.724H282.31a10.345,10.345,0,0,1,10.345,10.345Z" transform="translate(-3 -3)"/>
  </g>
</svg>
