<svg id="Component_2_1" data-name="Component 2 – 1" xmlns="http://www.w3.org/2000/svg" width="318.8" height="216.06" viewBox="0 0 318.8 216.06">
  <g id="Component_1_1" data-name="Component 1 – 1">
    <path id="drone" d="M311.056,170.827H271.208v-.309a14.518,14.518,0,1,0-29.036,0v.309H202.325a4.633,4.633,0,1,0,0,9.267h34.9v5.251c0,.1.006.206.008.309H78.451c0-.1.008-.205.008-.309v-5.251h34.9a4.633,4.633,0,1,0,0-9.267H73.517v-.309a14.518,14.518,0,0,0-29.036,0v.309H4.633a4.633,4.633,0,1,0,0,9.267h34.9v5.251a19.454,19.454,0,0,0,36.391,9.576h29.152l4.323,12.968a24.366,24.366,0,0,0,19.1,16.346v7.1a9.58,9.58,0,0,0-4.942,8.374v4.942a34.287,34.287,0,1,0,68.574,0V239.71a9.58,9.58,0,0,0-4.942-8.374v-7.1a24.367,24.367,0,0,0,19.1-16.346l4.323-12.968h29.152a19.454,19.454,0,0,0,36.391-9.576v-5.251h34.9a4.633,4.633,0,0,0,0-9.267Zm-257.308-.309a5.251,5.251,0,1,1,10.5,0v.309h-10.5ZM59,195.538a10.205,10.205,0,0,1-10.193-10.193v-5.251H69.192v5.251A10.205,10.205,0,0,1,59,195.538Zm118.924,29.036v5.56H137.766v-5.56ZM163.1,244.652a5.251,5.251,0,1,1-5.251-5.251A5.257,5.257,0,0,1,163.1,244.652Zm19.769,0a25.02,25.02,0,0,1-50.041,0V239.71a.309.309,0,0,1,.309-.309h11.18a14.518,14.518,0,1,0,27.063,0h11.18a.309.309,0,0,1,.309.309Zm14.628-39.694a15.116,15.116,0,0,1-14.359,10.349H132.555A15.116,15.116,0,0,1,118.2,204.958l-3.345-10.038h85.989Zm53.946-34.44a5.251,5.251,0,0,1,10.5,0v.309h-10.5Zm15.445,14.827a10.193,10.193,0,0,1-20.387,0v-5.251h20.387Z" transform="translate(0 -100.68)"/>
    <path id="Path_2" data-name="Path 2" d="M53.16,0,39.54-15.6c7.32-1.32,12.36-5.76,12.36-13.02C51.9-37.32,44.7-42,34.92-42H6.36V0h7.2V-15.24h17.7L44.28,0ZM13.5-21.42V-35.7H34.44c6,0,10.08,1.92,10.08,7.14s-4.08,7.14-10.08,7.14Zm51.78,6.54H97.92a4.763,4.763,0,0,0,.18-1.56c0-11.52-7.68-17.7-19.5-17.7-12.66,0-20.22,6.84-20.22,17.76,0,10.8,7.56,17.64,20.7,17.64,7.68,0,13.38-1.86,17.88-5.88L92.88-9c-3.6,3.18-7.38,4.74-13.44,4.74C71.16-4.26,65.94-7.74,65.28-14.88ZM78.66-28.62c6.48,0,11.16,2.7,12.66,8.7l-25.74.06C66.9-25.68,71.76-28.62,78.66-28.62ZM130.08-5.1c-11.1,0-18.48-5.4-18.48-15.9s7.38-15.9,18.48-15.9c6.84,0,12.18,2.28,15.3,7.44l6.72-3.36c-3.9-6-11.58-10.44-21.9-10.44-16.02,0-25.92,8.46-25.92,22.26s9.9,22.26,25.62,22.26c10.62,0,18.3-4.38,22.26-10.5l-6.66-3.3C142.32-7.32,136.92-5.1,130.08-5.1Z" transform="translate(78 43.26)"/>
    <circle id="Ellipse_1" data-name="Ellipse 1" cx="15.5" cy="15.5" r="15.5" transform="translate(142 50.26)" fill="#cb2d2d"/>
    <circle id="Ellipse_2" data-name="Ellipse 2" cx="3.5" cy="3.5" r="3.5" transform="translate(174 140.26)" fill="#cb2d2d"/>
  </g>
  <path id="Path_1" data-name="Path 1" d="M-138.28-28H-157.2V0h4.8V-9.68h14.12c6.8,0,11.32-3.28,11.32-9.16C-126.96-24.68-131.48-28-138.28-28Zm-.4,14.2H-152.4v-10h13.72c4.12,0,6.8,1.4,6.8,5C-131.88-15.24-134.56-13.8-138.68-13.8Zm31.48-8.92c-4.48,0-8.08,1.92-10,5.04V-29.6h-4.68V0h4.68V-13.48a9.49,9.49,0,0,1,8.8-5.36c4.36,0,6.56,2.32,6.56,6.64V0h4.64V-12.52C-97.2-18.44-100.52-22.72-107.2-22.72ZM-78.08.84c8.52,0,13.64-4.52,13.64-11.76,0-7.28-5.12-11.84-13.64-11.84-8.48,0-13.64,4.56-13.64,11.84C-91.72-3.68-86.56.84-78.08.84Zm0-3.92c-5.16,0-9.04-2.6-9.04-7.84,0-5.32,3.88-7.92,9.04-7.92,5.2,0,9.08,2.6,9.08,7.92C-69-5.68-72.88-3.08-78.08-3.08Zm33.56-1.4a8.992,8.992,0,0,1-4.36,1.32c-2.28,0-4.16-1.2-4.16-3.64V-18.2h9.56v-3.72h-9.56V-27h-4.68v5.08h-4.24v3.72h4.24V-6.04c0,4.56,3.4,6.84,7.68,6.84a12.488,12.488,0,0,0,6.76-2.04ZM-27.08.84c8.52,0,13.64-4.52,13.64-11.76,0-7.28-5.12-11.84-13.64-11.84-8.48,0-13.64,4.56-13.64,11.84C-40.72-3.68-35.56.84-27.08.84Zm0-3.92c-5.16,0-9.04-2.6-9.04-7.84,0-5.32,3.88-7.92,9.04-7.92,5.2,0,9.08,2.6,9.08,7.92C-18-5.68-21.88-3.08-27.08-3.08Zm44.4-18.84H12.64V-18C10.6-20.96,7-22.72,2.52-22.72c-7.24,0-11.84,4.56-11.84,11.64C-9.32-4.04-4.72.48,2.52.48,6.68.48,10.6-1.28,12.64-4.2v2.04c0,4.76-3.24,7.08-9.2,7.08A16.225,16.225,0,0,1-5.4,2.52L-7.08,6C-4.6,7.68,0,8.8,3.92,8.8c6.92,0,13.4-3.24,13.4-11.64ZM3.76-3.32c-5.44,0-8.48-2.84-8.48-7.76,0-4.96,3.04-7.8,8.48-7.8a9.767,9.767,0,0,1,8.88,4.72v6.12A9.767,9.767,0,0,1,3.76-3.32ZM29.2,0V-12.12c1.48-4.12,5.48-6.16,10.36-6.16v-4.08c-4.52,0-8.6,1.92-10.36,5.44v-5H24.52V0ZM53.96-22.72A22.454,22.454,0,0,0,43.08-20l1.68,3.16a15.579,15.579,0,0,1,8.32-2.2c5.64,0,8.52,2.12,8.52,6.84v1.6c-1.72-2.12-5.08-3.92-9.56-3.92-4.72,0-11,1.92-11,7.64,0,5.76,6.28,7.68,11,7.68C56.52.8,59.88-1,61.6-3.12v.04A6.156,6.156,0,0,0,62.44,0h4.84a8.214,8.214,0,0,1-1-4.24V-12.2C66.28-19.08,61.6-22.72,53.96-22.72Zm7.72,16.2c-1.76,3-5.48,3.96-8.76,3.96-2.92,0-7.28-.76-7.28-4.32,0-3.52,4.36-4.28,7.28-4.28,3.28,0,7,.92,8.76,3.96ZM88,.8c7.12,0,11.84-4.68,11.84-11.76,0-7.12-4.72-11.76-11.84-11.76-4.68,0-8.2,1.96-10.08,4.72v-3.92H73.24V8h4.68V-3.92C79.8-1.16,83.32.8,88,.8ZM86.8-18.76c5.44,0,8.48,2.8,8.48,7.8S92.24-3.2,86.8-3.2c-3.64,0-6.8-1.24-8.88-4.48v-6.56C80-17.48,83.16-18.76,86.8-18.76Zm33.4-3.96c-4.48,0-8.08,1.92-10,5.04V-29.6h-4.68V0h4.68V-13.48a9.49,9.49,0,0,1,8.8-5.36c4.36,0,6.56,2.32,6.56,6.64V0h4.64V-12.52C130.2-18.44,126.88-22.72,120.2-22.72Zm35.68.8-8.64,16-8.8-16H133.4L144.84-1.44,139.36,8h4.88L160.8-21.92Z" transform="translate(158 207.26)"/>
</svg>
