<svg xmlns="http://www.w3.org/2000/svg" width="324" height="232" viewBox="0 0 324 232">
  <g id="Component_2_1" data-name="Component 2 – 1" transform="translate(1)">
    <g id="Component_1_1" data-name="Component 1 – 1" transform="translate(3)">
      <path id="drone" d="M311.056,170.827H271.208v-.309a14.518,14.518,0,1,0-29.036,0v.309H202.325a4.633,4.633,0,1,0,0,9.267h34.9v5.251c0,.1.006.206.008.309H78.451c0-.1.008-.205.008-.309v-5.251h34.9a4.633,4.633,0,1,0,0-9.267H73.517v-.309a14.518,14.518,0,0,0-29.036,0v.309H4.633a4.633,4.633,0,1,0,0,9.267h34.9v5.251a19.454,19.454,0,0,0,36.391,9.576h29.152l4.323,12.968a24.366,24.366,0,0,0,19.1,16.346v7.1a9.58,9.58,0,0,0-4.942,8.374v4.942a34.287,34.287,0,1,0,68.574,0V239.71a9.58,9.58,0,0,0-4.942-8.374v-7.1a24.367,24.367,0,0,0,19.1-16.346l4.323-12.968h29.152a19.454,19.454,0,0,0,36.391-9.576v-5.251h34.9a4.633,4.633,0,0,0,0-9.267Zm-257.308-.309a5.251,5.251,0,1,1,10.5,0v.309h-10.5ZM59,195.538a10.205,10.205,0,0,1-10.193-10.193v-5.251H69.192v5.251A10.205,10.205,0,0,1,59,195.538Zm118.924,29.036v5.56H137.766v-5.56ZM163.1,244.652a5.251,5.251,0,1,1-5.251-5.251A5.257,5.257,0,0,1,163.1,244.652Zm19.769,0a25.02,25.02,0,0,1-50.041,0V239.71a.309.309,0,0,1,.309-.309h11.18a14.518,14.518,0,1,0,27.063,0h11.18a.309.309,0,0,1,.309.309Zm14.628-39.694a15.116,15.116,0,0,1-14.359,10.349H132.555A15.116,15.116,0,0,1,118.2,204.958l-3.345-10.038h85.989Zm53.946-34.44a5.251,5.251,0,0,1,10.5,0v.309h-10.5Zm15.445,14.827a10.193,10.193,0,0,1-20.387,0v-5.251h20.387Z" transform="translate(0 -85.94)"/>
      <text id="ReC" transform="translate(78 58)" font-size="60" font-family="Termina-Medium, Termina" font-weight="500"><tspan x="0" y="0">ReC</tspan></text>
      <circle id="Ellipse_1" data-name="Ellipse 1" cx="15.5" cy="15.5" r="15.5" transform="translate(142 65)" fill="#cb2d2d"/>
      <circle id="Ellipse_2" data-name="Ellipse 2" cx="3.5" cy="3.5" r="3.5" transform="translate(174 155)" fill="#cb2d2d"/>
    </g>
    <text id="Photography" transform="translate(161 222)" font-size="40" font-family="Termina-Medium, Termina" font-weight="500"><tspan x="-161.44" y="0">Photography</tspan></text>
  </g>
</svg>
