<svg xmlns="http://www.w3.org/2000/svg" width="25.512" height="30.849" viewBox="0 0 25.512 30.849">
  <path id="Icon_metro-youtube2" data-name="Icon metro-youtube2" d="M21.485,23.618v3.632q0,1.153-.671,1.153a1.1,1.1,0,0,1-.775-.379V22.844a1.1,1.1,0,0,1,.775-.379q.671,0,.671,1.153Zm5.819.017v.792H25.754v-.792q0-1.171.775-1.171t.775,1.171ZM10.674,19.883h1.842V18.265H7.145v1.618H8.953v9.8h1.721Zm4.958,9.8h1.532v-8.5H15.632v6.507q-.516.723-.981.723-.31,0-.362-.362a4.787,4.787,0,0,1-.017-.6V21.174H12.74V27.9a4.257,4.257,0,0,0,.138,1.257.927.927,0,0,0,1,.637,2.52,2.52,0,0,0,1.756-1.05v.93Zm7.385-2.548V23.739a6.122,6.122,0,0,0-.155-1.7,1.2,1.2,0,0,0-1.222-.964,2.073,2.073,0,0,0-1.6.93V18.265H18.507V29.678h1.532v-.826a2.136,2.136,0,0,0,1.6.947,1.192,1.192,0,0,0,1.222-.947A6.328,6.328,0,0,0,23.017,27.13Zm5.819-.172v-.224H27.269a8.523,8.523,0,0,1-.034,1.05.659.659,0,0,1-.689.62q-.792,0-.792-1.188v-1.5h3.081V23.945a3.416,3.416,0,0,0-.465-2,2.353,2.353,0,0,0-3.667,0,3.321,3.321,0,0,0-.482,2v2.978a3.233,3.233,0,0,0,.5,2,2.21,2.21,0,0,0,1.859.878A2.131,2.131,0,0,0,28.8,27.956a7.577,7.577,0,0,0,.034-1ZM18.369,11.241V7.626q0-1.188-.74-1.188t-.74,1.188v3.615q0,1.205.74,1.205t.74-1.205ZM30.747,24.169a29.827,29.827,0,0,1-.448,6.025,3.269,3.269,0,0,1-1,1.7,3.011,3.011,0,0,1-1.756.792,92.044,92.044,0,0,1-9.554.362,92.044,92.044,0,0,1-9.554-.362A3.051,3.051,0,0,1,6.672,31.9a3.147,3.147,0,0,1-.99-1.7,29.213,29.213,0,0,1-.448-6.025,29.827,29.827,0,0,1,.448-6.025,3.269,3.269,0,0,1,1-1.7,3.122,3.122,0,0,1,1.773-.809q3.15-.344,9.537-.344t9.554.344A3.233,3.233,0,0,1,30.3,18.144a29.213,29.213,0,0,1,.448,6.025ZM13.567,2.2h1.756L13.239,9.072v4.665H11.518V9.072a29.151,29.151,0,0,0-1.05-3.649Q9.831,3.649,9.349,2.2h1.825L12.4,6.731Zm6.369,5.732v3.013a3.393,3.393,0,0,1-.482,2.031,2.118,2.118,0,0,1-1.825.878,2.129,2.129,0,0,1-1.808-.878,3.441,3.441,0,0,1-.482-2.031V7.936a3.357,3.357,0,0,1,.482-2.014,2.129,2.129,0,0,1,1.808-.878,2.118,2.118,0,0,1,1.825.878,3.357,3.357,0,0,1,.482,2.014ZM25.7,5.147v8.59H24.136V12.79a2.478,2.478,0,0,1-1.773,1.067.957.957,0,0,1-1.016-.637,4.418,4.418,0,0,1-.138-1.291V5.147h1.567v6.318a4.521,4.521,0,0,0,.017.6q.052.379.362.379.465,0,.981-.74V5.147Z" transform="translate(-5.235 -2.203)" fill="rgba(0,0,0,0.63)"/>
</svg>
